%TF.GenerationSoftware,KiCad,Pcbnew,10.0.3*%
%TF.CreationDate,2026-07-22T00:05:45+08:00*%
%TF.ProjectId,universalOpAmpV0,756e6976-6572-4736-916c-4f70416d7056,rev?*%
%TF.SameCoordinates,Original*%
%TF.FileFunction,Soldermask,Bot*%
%TF.FilePolarity,Negative*%
%FSLAX46Y46*%
G04 Gerber Fmt 4.6, Leading zero omitted, Abs format (unit mm)*
G04 Created by KiCad (PCBNEW 10.0.3) date 2026-07-22 00:05:45*
%MOMM*%
%LPD*%
G01*
G04 APERTURE LIST*
G04 Aperture macros list*
%AMRoundRect*
0 Rectangle with rounded corners*
0 $1 Rounding radius*
0 $2 $3 $4 $5 $6 $7 $8 $9 X,Y pos of 4 corners*
0 Add a 4 corners polygon primitive as box body*
4,1,4,$2,$3,$4,$5,$6,$7,$8,$9,$2,$3,0*
0 Add four circle primitives for the rounded corners*
1,1,$1+$1,$2,$3*
1,1,$1+$1,$4,$5*
1,1,$1+$1,$6,$7*
1,1,$1+$1,$8,$9*
0 Add four rect primitives between the rounded corners*
20,1,$1+$1,$2,$3,$4,$5,0*
20,1,$1+$1,$4,$5,$6,$7,0*
20,1,$1+$1,$6,$7,$8,$9,0*
20,1,$1+$1,$8,$9,$2,$3,0*%
%AMOutline5P*
0 Free polygon, 5 corners , with rotation*
0 The origin of the aperture is its center*
0 number of corners: always 5*
0 $1 to $10 corner X, Y*
0 $11 Rotation angle, in degrees counterclockwise*
0 create outline with 5 corners*
4,1,5,$1,$2,$3,$4,$5,$6,$7,$8,$9,$10,$1,$2,$11*%
%AMOutline6P*
0 Free polygon, 6 corners , with rotation*
0 The origin of the aperture is its center*
0 number of corners: always 6*
0 $1 to $12 corner X, Y*
0 $13 Rotation angle, in degrees counterclockwise*
0 create outline with 6 corners*
4,1,6,$1,$2,$3,$4,$5,$6,$7,$8,$9,$10,$11,$12,$1,$2,$13*%
%AMOutline7P*
0 Free polygon, 7 corners , with rotation*
0 The origin of the aperture is its center*
0 number of corners: always 7*
0 $1 to $14 corner X, Y*
0 $15 Rotation angle, in degrees counterclockwise*
0 create outline with 7 corners*
4,1,7,$1,$2,$3,$4,$5,$6,$7,$8,$9,$10,$11,$12,$13,$14,$1,$2,$15*%
%AMOutline8P*
0 Free polygon, 8 corners , with rotation*
0 The origin of the aperture is its center*
0 number of corners: always 8*
0 $1 to $16 corner X, Y*
0 $17 Rotation angle, in degrees counterclockwise*
0 create outline with 8 corners*
4,1,8,$1,$2,$3,$4,$5,$6,$7,$8,$9,$10,$11,$12,$13,$14,$15,$16,$1,$2,$17*%
G04 Aperture macros list end*
%ADD10RoundRect,0.450000X-1.800000X1.050000X-1.800000X-1.050000X1.800000X-1.050000X1.800000X1.050000X0*%
%ADD11Outline8P,-1.150000X0.480000X-0.830000X0.800000X0.830000X0.800000X1.150000X0.480000X1.150000X-0.480000X0.830000X-0.800000X-0.830000X-0.800000X-1.150000X-0.480000X270.000000*%
%ADD12RoundRect,0.141304X-1.108696X0.508696X-1.108696X-0.508696X1.108696X-0.508696X1.108696X0.508696X0*%
%ADD13RoundRect,0.250000X-0.337500X-0.475000X0.337500X-0.475000X0.337500X0.475000X-0.337500X0.475000X0*%
%ADD14RoundRect,0.250000X0.475000X-0.337500X0.475000X0.337500X-0.475000X0.337500X-0.475000X-0.337500X0*%
%ADD15Outline8P,-1.150000X0.480000X-0.830000X0.800000X0.830000X0.800000X1.150000X0.480000X1.150000X-0.480000X0.830000X-0.800000X-0.830000X-0.800000X-1.150000X-0.480000X90.000000*%
%ADD16RoundRect,0.450000X1.800000X-1.050000X1.800000X1.050000X-1.800000X1.050000X-1.800000X-1.050000X0*%
G04 APERTURE END LIST*
D10*
%TO.C,J3*%
X100000000Y-128800000D03*
X100000000Y-121200000D03*
D11*
X107800000Y-125000000D03*
%TD*%
D10*
%TO.C,J2*%
X100000000Y-103800000D03*
X100000000Y-96200000D03*
D11*
X107800000Y-100000000D03*
%TD*%
D12*
%TO.C,C58*%
X173837771Y-90725597D03*
X173837771Y-85725597D03*
%TD*%
D13*
%TO.C,C52*%
X187776271Y-87717597D03*
X189851271Y-87717597D03*
%TD*%
D14*
%TO.C,C53*%
X192856271Y-89263097D03*
X192856271Y-87188097D03*
%TD*%
D13*
%TO.C,C54*%
X187776271Y-89749597D03*
X189851271Y-89749597D03*
%TD*%
D14*
%TO.C,C55*%
X194909771Y-89263097D03*
X194909771Y-87188097D03*
%TD*%
D12*
%TO.C,C56*%
X184837771Y-90725597D03*
X184837771Y-85725597D03*
%TD*%
%TO.C,C57*%
X180177771Y-90725597D03*
X180177771Y-85725597D03*
%TD*%
D14*
%TO.C,C44*%
X146210271Y-121356032D03*
X146210271Y-119281032D03*
%TD*%
D13*
%TO.C,C45*%
X141130271Y-121842532D03*
X143205271Y-121842532D03*
%TD*%
D14*
%TO.C,C46*%
X148263771Y-121356032D03*
X148263771Y-119281032D03*
%TD*%
D12*
%TO.C,C47*%
X138191771Y-122818532D03*
X138191771Y-117818532D03*
%TD*%
%TO.C,C48*%
X133531771Y-122818532D03*
X133531771Y-117818532D03*
%TD*%
%TO.C,C49*%
X127191771Y-122818532D03*
X127191771Y-117818532D03*
%TD*%
D13*
%TO.C,C43*%
X141130271Y-119810532D03*
X143205271Y-119810532D03*
%TD*%
D12*
%TO.C,C74*%
X184862771Y-117962532D03*
X184862771Y-122962532D03*
%TD*%
%TO.C,C77*%
X173862771Y-117962532D03*
X173862771Y-122962532D03*
%TD*%
D14*
%TO.C,C71*%
X192881271Y-119425032D03*
X192881271Y-121500032D03*
%TD*%
D13*
%TO.C,C70*%
X189876271Y-119954532D03*
X187801271Y-119954532D03*
%TD*%
D12*
%TO.C,C75*%
X180202771Y-117962532D03*
X180202771Y-122962532D03*
%TD*%
D14*
%TO.C,C73*%
X194934771Y-119425032D03*
X194934771Y-121500032D03*
%TD*%
D13*
%TO.C,C72*%
X189876271Y-121986532D03*
X187801271Y-121986532D03*
%TD*%
D12*
%TO.C,C65*%
X184822771Y-106831032D03*
X184822771Y-101831032D03*
%TD*%
%TO.C,C67*%
X173822771Y-106831032D03*
X173822771Y-101831032D03*
%TD*%
D14*
%TO.C,C62*%
X192841271Y-105368532D03*
X192841271Y-103293532D03*
%TD*%
D13*
%TO.C,C61*%
X187761271Y-103823032D03*
X189836271Y-103823032D03*
%TD*%
D12*
%TO.C,C66*%
X180162771Y-106831032D03*
X180162771Y-101831032D03*
%TD*%
D14*
%TO.C,C64*%
X194894771Y-105368532D03*
X194894771Y-103293532D03*
%TD*%
D13*
%TO.C,C63*%
X187761271Y-105855032D03*
X189836271Y-105855032D03*
%TD*%
D12*
%TO.C,C38*%
X138192771Y-101626032D03*
X138192771Y-106626032D03*
%TD*%
%TO.C,C40*%
X127192771Y-101626032D03*
X127192771Y-106626032D03*
%TD*%
D14*
%TO.C,C35*%
X146211271Y-103088532D03*
X146211271Y-105163532D03*
%TD*%
D13*
%TO.C,C34*%
X143206271Y-103618032D03*
X141131271Y-103618032D03*
%TD*%
D12*
%TO.C,C39*%
X133532771Y-101626032D03*
X133532771Y-106626032D03*
%TD*%
D14*
%TO.C,C37*%
X148264771Y-103088532D03*
X148264771Y-105163532D03*
%TD*%
D13*
%TO.C,C36*%
X143206271Y-105650032D03*
X141131271Y-105650032D03*
%TD*%
D15*
%TO.C,J4*%
X225880000Y-75340000D03*
D16*
X233680000Y-79140000D03*
X233680000Y-71540000D03*
%TD*%
D11*
%TO.C,J1*%
X107800000Y-75000000D03*
D10*
X100000000Y-71200000D03*
X100000000Y-78800000D03*
%TD*%
D12*
%TO.C,C7*%
X138082771Y-90433532D03*
X138082771Y-85433532D03*
%TD*%
%TO.C,C9*%
X127082771Y-90433532D03*
X127082771Y-85433532D03*
%TD*%
%TO.C,C8*%
X133422771Y-90433532D03*
X133422771Y-85433532D03*
%TD*%
D15*
%TO.C,J6*%
X225880000Y-125340000D03*
D16*
X233680000Y-129140000D03*
X233680000Y-121540000D03*
%TD*%
D15*
%TO.C,J5*%
X225880000Y-100340000D03*
D16*
X233680000Y-104140000D03*
X233680000Y-96540000D03*
%TD*%
D13*
%TO.C,C3*%
X141021271Y-87425532D03*
X143096271Y-87425532D03*
%TD*%
D14*
%TO.C,C4*%
X146101271Y-88971032D03*
X146101271Y-86896032D03*
%TD*%
%TO.C,C6*%
X148154771Y-88971032D03*
X148154771Y-86896032D03*
%TD*%
D13*
%TO.C,C5*%
X141021271Y-89457532D03*
X143096271Y-89457532D03*
%TD*%
M02*
