M48
; DRILL file KiCad 10.0.3 date 2026-07-22T00:05:33
; FORMAT={-:-/ absolute / metric / decimal}
; #@! TF.CreationDate,2026-07-22T00:05:33+08:00
; #@! TF.GenerationSoftware,Kicad,Pcbnew,10.0.3
; #@! TF.FileFunction,Plated,1,4,PTH
FMAT,2
METRIC
; #@! TA.AperFunction,Plated,PTH,ViaDrill
T1C0.300
; #@! TA.AperFunction,Plated,PTH,ComponentDrill
T2C0.800
; #@! TA.AperFunction,Plated,PTH,ComponentDrill
T3C0.950
; #@! TA.AperFunction,Plated,PTH,ComponentDrill
T4C1.800
%
G90
G05
T1
X114.5Y-110.25
X115.15Y-111.5
X117.164Y-80.805
X117.164Y-81.655
X117.164Y-115.805
X117.164Y-116.655
X117.185Y-113.265
X117.185Y-114.115
X117.243Y-103.44
X117.243Y-104.29
X117.247Y-98.36
X117.247Y-99.21
X117.28Y-100.9
X117.28Y-101.75
X117.294Y-85.885
X117.294Y-86.735
X117.294Y-120.885
X117.294Y-121.735
X117.307Y-78.265
X117.307Y-79.115
X117.316Y-83.345
X117.316Y-84.195
X117.316Y-118.345
X117.316Y-119.195
X117.356Y-95.82
X117.356Y-96.67
X120.0Y-95.75
X120.0Y-101.7
X120.0Y-103.49
X120.25Y-97.897
X129.867Y-78.79
X129.976Y-111.175
X129.977Y-94.982
X141.021Y-88.442
X141.13Y-120.827
X141.131Y-104.634
X141.297Y-84.759
X141.406Y-117.144
X141.407Y-100.951
X142.567Y-78.314
X142.676Y-110.699
X142.677Y-94.506
X145.107Y-85.394
X145.216Y-117.779
X145.217Y-101.586
X147.139Y-86.896
X147.139Y-87.934
X147.248Y-119.281
X147.248Y-120.319
X147.249Y-103.089
X147.249Y-104.126
X147.271Y-83.229
X147.38Y-115.614
X147.381Y-99.422
X162.683Y-86.663
X163.283Y-85.0
X163.883Y-97.147
X164.052Y-101.673
X165.078Y-85.985
X165.078Y-86.835
X165.127Y-80.905
X165.127Y-81.755
X165.155Y-78.365
X165.155Y-79.215
X165.164Y-83.445
X165.164Y-84.295
X165.252Y-102.177
X165.252Y-103.027
X165.267Y-110.75
X165.267Y-111.6
X165.277Y-94.557
X165.277Y-95.407
X165.288Y-113.29
X165.288Y-114.14
X165.307Y-118.37
X165.307Y-119.22
X165.338Y-99.637
X165.338Y-100.487
X165.345Y-115.83
X165.345Y-116.68
X165.356Y-97.097
X165.356Y-97.947
X168.0Y-86.0
X168.0Y-87.277
X168.0Y-94.407
X168.6Y-95.25
X176.607Y-95.187
X176.622Y-79.082
X176.647Y-111.319
X187.761Y-104.839
X187.776Y-88.734
X187.801Y-120.971
X188.037Y-101.156
X188.052Y-85.051
X188.077Y-117.288
X189.307Y-94.711
X189.322Y-78.606
X189.347Y-110.843
X191.847Y-101.791
X191.862Y-85.686
X191.887Y-117.923
X193.879Y-103.294
X193.879Y-104.331
X193.894Y-87.188
X193.894Y-88.226
X193.919Y-119.425
X193.919Y-120.463
X194.011Y-99.627
X194.026Y-83.521
X194.051Y-115.758
X211.777Y-81.197
X211.777Y-82.047
X211.777Y-83.737
X211.777Y-84.587
X211.888Y-99.842
X211.888Y-100.692
X211.906Y-102.382
X211.906Y-103.232
X211.925Y-110.894
X211.925Y-111.744
X211.929Y-118.514
X211.929Y-119.364
X211.941Y-113.434
X211.941Y-114.284
X211.958Y-115.974
X211.958Y-116.824
X211.964Y-94.762
X211.964Y-95.612
X211.974Y-86.277
X211.974Y-87.127
X211.982Y-97.302
X211.982Y-98.152
X212.063Y-78.657
X212.063Y-79.507
T2
X127.083Y-85.434
X127.083Y-90.434
X127.192Y-117.819
X127.192Y-122.819
X127.193Y-101.626
X127.193Y-106.626
X133.423Y-85.434
X133.423Y-90.434
X133.532Y-117.819
X133.532Y-122.819
X133.533Y-101.626
X133.533Y-106.626
X138.083Y-85.434
X138.083Y-90.434
X138.192Y-117.819
X138.192Y-122.819
X138.193Y-101.626
X138.193Y-106.626
X173.823Y-101.831
X173.823Y-106.831
X173.838Y-85.726
X173.838Y-90.726
X173.863Y-117.963
X173.863Y-122.963
X180.163Y-101.831
X180.163Y-106.831
X180.178Y-85.726
X180.178Y-90.726
X180.203Y-117.963
X180.203Y-122.963
X184.823Y-101.831
X184.823Y-106.831
X184.838Y-85.726
X184.838Y-90.726
X184.863Y-117.963
X184.863Y-122.963
T3
X107.8Y-75.0
X107.8Y-100.0
X107.8Y-125.0
X225.88Y-75.34
X225.88Y-100.34
X225.88Y-125.34
T4
X100.0Y-71.2
X100.0Y-78.8
X100.0Y-96.2
X100.0Y-103.8
X100.0Y-121.2
X100.0Y-128.8
X233.68Y-71.54
X233.68Y-79.14
X233.68Y-96.54
X233.68Y-104.14
X233.68Y-121.54
X233.68Y-129.14
M30
