%TF.GenerationSoftware,KiCad,Pcbnew,10.0.3*%
%TF.CreationDate,2026-07-22T00:13:55+08:00*%
%TF.ProjectId,universalOpAmpV0,756e6976-6572-4736-916c-4f70416d7056,rev?*%
%TF.SameCoordinates,Original*%
%TF.FileFunction,Soldermask,Top*%
%TF.FilePolarity,Negative*%
%FSLAX46Y46*%
G04 Gerber Fmt 4.6, Leading zero omitted, Abs format (unit mm)*
G04 Created by KiCad (PCBNEW 10.0.3) date 2026-07-22 00:13:55*
%MOMM*%
%LPD*%
G01*
G04 APERTURE LIST*
G04 Aperture macros list*
%AMRoundRect*
0 Rectangle with rounded corners*
0 $1 Rounding radius*
0 $2 $3 $4 $5 $6 $7 $8 $9 X,Y pos of 4 corners*
0 Add a 4 corners polygon primitive as box body*
4,1,4,$2,$3,$4,$5,$6,$7,$8,$9,$2,$3,0*
0 Add four circle primitives for the rounded corners*
1,1,$1+$1,$2,$3*
1,1,$1+$1,$4,$5*
1,1,$1+$1,$6,$7*
1,1,$1+$1,$8,$9*
0 Add four rect primitives between the rounded corners*
20,1,$1+$1,$2,$3,$4,$5,0*
20,1,$1+$1,$4,$5,$6,$7,0*
20,1,$1+$1,$6,$7,$8,$9,0*
20,1,$1+$1,$8,$9,$2,$3,0*%
%AMOutline5P*
0 Free polygon, 5 corners , with rotation*
0 The origin of the aperture is its center*
0 number of corners: always 5*
0 $1 to $10 corner X, Y*
0 $11 Rotation angle, in degrees counterclockwise*
0 create outline with 5 corners*
4,1,5,$1,$2,$3,$4,$5,$6,$7,$8,$9,$10,$1,$2,$11*%
%AMOutline6P*
0 Free polygon, 6 corners , with rotation*
0 The origin of the aperture is its center*
0 number of corners: always 6*
0 $1 to $12 corner X, Y*
0 $13 Rotation angle, in degrees counterclockwise*
0 create outline with 6 corners*
4,1,6,$1,$2,$3,$4,$5,$6,$7,$8,$9,$10,$11,$12,$1,$2,$13*%
%AMOutline7P*
0 Free polygon, 7 corners , with rotation*
0 The origin of the aperture is its center*
0 number of corners: always 7*
0 $1 to $14 corner X, Y*
0 $15 Rotation angle, in degrees counterclockwise*
0 create outline with 7 corners*
4,1,7,$1,$2,$3,$4,$5,$6,$7,$8,$9,$10,$11,$12,$13,$14,$1,$2,$15*%
%AMOutline8P*
0 Free polygon, 8 corners , with rotation*
0 The origin of the aperture is its center*
0 number of corners: always 8*
0 $1 to $16 corner X, Y*
0 $17 Rotation angle, in degrees counterclockwise*
0 create outline with 8 corners*
4,1,8,$1,$2,$3,$4,$5,$6,$7,$8,$9,$10,$11,$12,$13,$14,$15,$16,$1,$2,$17*%
G04 Aperture macros list end*
%ADD10RoundRect,0.190000X-0.560000X0.190000X-0.560000X-0.190000X0.560000X-0.190000X0.560000X0.190000X0*%
%ADD11RoundRect,0.150000X-0.150000X-0.600000X0.150000X-0.600000X0.150000X0.600000X-0.150000X0.600000X0*%
%ADD12RoundRect,0.450000X-1.800000X1.050000X-1.800000X-1.050000X1.800000X-1.050000X1.800000X1.050000X0*%
%ADD13Outline8P,-1.150000X0.480000X-0.830000X0.800000X0.830000X0.800000X1.150000X0.480000X1.150000X-0.480000X0.830000X-0.800000X-0.830000X-0.800000X-1.150000X-0.480000X270.000000*%
%ADD14RoundRect,0.162500X-0.617500X-0.162500X0.617500X-0.162500X0.617500X0.162500X-0.617500X0.162500X0*%
%ADD15RoundRect,0.150000X-0.825000X-0.150000X0.825000X-0.150000X0.825000X0.150000X-0.825000X0.150000X0*%
%ADD16RoundRect,0.162500X0.617500X0.162500X-0.617500X0.162500X-0.617500X-0.162500X0.617500X-0.162500X0*%
%ADD17RoundRect,0.141304X-1.108696X0.508696X-1.108696X-0.508696X1.108696X-0.508696X1.108696X0.508696X0*%
%ADD18RoundRect,0.190000X0.560000X-0.190000X0.560000X0.190000X-0.560000X0.190000X-0.560000X-0.190000X0*%
%ADD19RoundRect,0.250000X0.400000X-0.250000X0.400000X0.250000X-0.400000X0.250000X-0.400000X-0.250000X0*%
%ADD20RoundRect,0.375000X-0.625000X-0.375000X0.625000X-0.375000X0.625000X0.375000X-0.625000X0.375000X0*%
%ADD21RoundRect,0.112500X0.187500X0.112500X-0.187500X0.112500X-0.187500X-0.112500X0.187500X-0.112500X0*%
%ADD22RoundRect,0.250000X-0.337500X-0.475000X0.337500X-0.475000X0.337500X0.475000X-0.337500X0.475000X0*%
%ADD23RoundRect,0.250000X0.475000X-0.337500X0.475000X0.337500X-0.475000X0.337500X-0.475000X-0.337500X0*%
%ADD24RoundRect,0.162500X-0.487500X-0.637500X0.487500X-0.637500X0.487500X0.637500X-0.487500X0.637500X0*%
%ADD25RoundRect,0.200000X-0.800000X-0.600000X0.800000X-0.600000X0.800000X0.600000X-0.800000X0.600000X0*%
%ADD26RoundRect,0.162500X0.487500X0.637500X-0.487500X0.637500X-0.487500X-0.637500X0.487500X-0.637500X0*%
%ADD27RoundRect,0.200000X0.800000X0.600000X-0.800000X0.600000X-0.800000X-0.600000X0.800000X-0.600000X0*%
%ADD28Outline8P,-1.150000X0.480000X-0.830000X0.800000X0.830000X0.800000X1.150000X0.480000X1.150000X-0.480000X0.830000X-0.800000X-0.830000X-0.800000X-1.150000X-0.480000X90.000000*%
%ADD29RoundRect,0.450000X1.800000X-1.050000X1.800000X1.050000X-1.800000X1.050000X-1.800000X-1.050000X0*%
G04 APERTURE END LIST*
D10*
%TO.C,SW49*%
X118810000Y-113055000D03*
X118810000Y-114325000D03*
X118810000Y-115595000D03*
X118810000Y-116865000D03*
X118810000Y-118135000D03*
X118810000Y-119405000D03*
X118810000Y-120675000D03*
X118810000Y-121945000D03*
X111190000Y-121945000D03*
X111190000Y-120675000D03*
X111190000Y-119405000D03*
X111190000Y-118135000D03*
X111190000Y-116865000D03*
X111190000Y-115595000D03*
X111190000Y-114325000D03*
X111190000Y-113055000D03*
%TD*%
%TO.C,SW47*%
X118810000Y-95610000D03*
X118810000Y-96880000D03*
X118810000Y-98150000D03*
X118810000Y-99420000D03*
X118810000Y-100690000D03*
X118810000Y-101960000D03*
X118810000Y-103230000D03*
X118810000Y-104500000D03*
X111190000Y-104500000D03*
X111190000Y-103230000D03*
X111190000Y-101960000D03*
X111190000Y-100690000D03*
X111190000Y-99420000D03*
X111190000Y-98150000D03*
X111190000Y-96880000D03*
X111190000Y-95610000D03*
%TD*%
%TO.C,SW45*%
X205856771Y-110683532D03*
X205856771Y-111953532D03*
X205856771Y-113223532D03*
X205856771Y-114493532D03*
X205856771Y-115763532D03*
X205856771Y-117033532D03*
X205856771Y-118303532D03*
X205856771Y-119573532D03*
X213476771Y-119573532D03*
X213476771Y-118303532D03*
X213476771Y-117033532D03*
X213476771Y-115763532D03*
X213476771Y-114493532D03*
X213476771Y-113223532D03*
X213476771Y-111953532D03*
X213476771Y-110683532D03*
%TD*%
D11*
%TO.C,SW42*%
X177886771Y-109937532D03*
X179186771Y-109937532D03*
X177886771Y-115687532D03*
X179186771Y-115687532D03*
X180486771Y-115687532D03*
X180486771Y-109937532D03*
%TD*%
D10*
%TO.C,SW38*%
X205816771Y-94552032D03*
X205816771Y-95822032D03*
X205816771Y-97092032D03*
X205816771Y-98362032D03*
X205816771Y-99632032D03*
X205816771Y-100902032D03*
X205816771Y-102172032D03*
X205816771Y-103442032D03*
X213436771Y-103442032D03*
X213436771Y-102172032D03*
X213436771Y-100902032D03*
X213436771Y-99632032D03*
X213436771Y-98362032D03*
X213436771Y-97092032D03*
X213436771Y-95822032D03*
X213436771Y-94552032D03*
%TD*%
D11*
%TO.C,SW36*%
X180446771Y-93806032D03*
X180446771Y-99556032D03*
X179146771Y-99556032D03*
X177846771Y-99556032D03*
X179146771Y-93806032D03*
X177846771Y-93806032D03*
%TD*%
D10*
%TO.C,SW32*%
X213451771Y-78446597D03*
X213451771Y-79716597D03*
X213451771Y-80986597D03*
X213451771Y-82256597D03*
X213451771Y-83526597D03*
X213451771Y-84796597D03*
X213451771Y-86066597D03*
X213451771Y-87336597D03*
X205831771Y-87336597D03*
X205831771Y-86066597D03*
X205831771Y-84796597D03*
X205831771Y-83526597D03*
X205831771Y-82256597D03*
X205831771Y-80986597D03*
X205831771Y-79716597D03*
X205831771Y-78446597D03*
%TD*%
D11*
%TO.C,SW30*%
X180461771Y-77700597D03*
X180461771Y-83450597D03*
X179161771Y-83450597D03*
X177861771Y-83450597D03*
X179161771Y-77700597D03*
X177861771Y-77700597D03*
%TD*%
D10*
%TO.C,SW26*%
X166805771Y-110539532D03*
X166805771Y-111809532D03*
X166805771Y-113079532D03*
X166805771Y-114349532D03*
X166805771Y-115619532D03*
X166805771Y-116889532D03*
X166805771Y-118159532D03*
X166805771Y-119429532D03*
X159185771Y-119429532D03*
X159185771Y-118159532D03*
X159185771Y-116889532D03*
X159185771Y-115619532D03*
X159185771Y-114349532D03*
X159185771Y-113079532D03*
X159185771Y-111809532D03*
X159185771Y-110539532D03*
%TD*%
D11*
%TO.C,SW24*%
X133815771Y-109793532D03*
X133815771Y-115543532D03*
X132515771Y-115543532D03*
X131215771Y-115543532D03*
X132515771Y-109793532D03*
X131215771Y-109793532D03*
%TD*%
D10*
%TO.C,SW20*%
X166806771Y-94347032D03*
X166806771Y-95617032D03*
X166806771Y-96887032D03*
X166806771Y-98157032D03*
X166806771Y-99427032D03*
X166806771Y-100697032D03*
X166806771Y-101967032D03*
X166806771Y-103237032D03*
X159186771Y-103237032D03*
X159186771Y-101967032D03*
X159186771Y-100697032D03*
X159186771Y-99427032D03*
X159186771Y-98157032D03*
X159186771Y-96887032D03*
X159186771Y-95617032D03*
X159186771Y-94347032D03*
%TD*%
D11*
%TO.C,SW18*%
X131216771Y-93601032D03*
X132516771Y-93601032D03*
X131216771Y-99351032D03*
X132516771Y-99351032D03*
X133816771Y-99351032D03*
X133816771Y-93601032D03*
%TD*%
D10*
%TO.C,SW8*%
X166696771Y-78154532D03*
X166696771Y-79424532D03*
X166696771Y-80694532D03*
X166696771Y-81964532D03*
X166696771Y-83234532D03*
X166696771Y-84504532D03*
X166696771Y-85774532D03*
X166696771Y-87044532D03*
X159076771Y-87044532D03*
X159076771Y-85774532D03*
X159076771Y-84504532D03*
X159076771Y-83234532D03*
X159076771Y-81964532D03*
X159076771Y-80694532D03*
X159076771Y-79424532D03*
X159076771Y-78154532D03*
%TD*%
D11*
%TO.C,SW6*%
X133706771Y-77408532D03*
X133706771Y-83158532D03*
X132406771Y-83158532D03*
X131106771Y-83158532D03*
X132406771Y-77408532D03*
X131106771Y-77408532D03*
%TD*%
D10*
%TO.C,SW1*%
X118810000Y-78055000D03*
X118810000Y-79325000D03*
X118810000Y-80595000D03*
X118810000Y-81865000D03*
X118810000Y-83135000D03*
X118810000Y-84405000D03*
X118810000Y-85675000D03*
X118810000Y-86945000D03*
X111190000Y-86945000D03*
X111190000Y-85675000D03*
X111190000Y-84405000D03*
X111190000Y-83135000D03*
X111190000Y-81865000D03*
X111190000Y-80595000D03*
X111190000Y-79325000D03*
X111190000Y-78055000D03*
%TD*%
D12*
%TO.C,J3*%
X100000000Y-128800000D03*
X100000000Y-121200000D03*
D13*
X107800000Y-125000000D03*
%TD*%
D12*
%TO.C,J2*%
X100000000Y-103800000D03*
X100000000Y-96200000D03*
D13*
X107800000Y-100000000D03*
%TD*%
D14*
%TO.C,U3*%
X205200000Y-67075000D03*
X205200000Y-68975000D03*
X202500000Y-68975000D03*
X202500000Y-68025000D03*
X202500000Y-67075000D03*
%TD*%
D15*
%TO.C,U2*%
X213455000Y-67030000D03*
X213455000Y-68300000D03*
X213455000Y-69570000D03*
X213455000Y-70840000D03*
X208505000Y-70840000D03*
X208505000Y-69570000D03*
X208505000Y-68300000D03*
X208505000Y-67030000D03*
%TD*%
%TO.C,U5*%
X223905000Y-67030000D03*
X223905000Y-68300000D03*
X223905000Y-69570000D03*
X223905000Y-70840000D03*
X218955000Y-70840000D03*
X218955000Y-69570000D03*
X218955000Y-68300000D03*
X218955000Y-67030000D03*
%TD*%
D14*
%TO.C,U4*%
X205200000Y-71850000D03*
X205200000Y-73750000D03*
X202500000Y-73750000D03*
X202500000Y-72800000D03*
X202500000Y-71850000D03*
%TD*%
D16*
%TO.C,U10*%
X190671771Y-87905597D03*
X190671771Y-86955597D03*
X190671771Y-86005597D03*
X187971771Y-86005597D03*
X187971771Y-87905597D03*
%TD*%
D17*
%TO.C,C58*%
X173837771Y-90725597D03*
X173837771Y-85725597D03*
%TD*%
D18*
%TO.C,SW27*%
X202783771Y-90765597D03*
X202783771Y-89495597D03*
X202783771Y-88225597D03*
X202783771Y-86955597D03*
X195163771Y-86955597D03*
X195163771Y-88225597D03*
X195163771Y-89495597D03*
X195163771Y-90765597D03*
%TD*%
D19*
%TO.C,SW28*%
X175136771Y-81420597D03*
X175136771Y-79970597D03*
X175136771Y-78520597D03*
X170486771Y-81420597D03*
X170486771Y-79970597D03*
X170486771Y-78520597D03*
%TD*%
%TO.C,SW29*%
X187836771Y-81420597D03*
X187836771Y-79970597D03*
X187836771Y-78520597D03*
X183186771Y-81420597D03*
X183186771Y-79970597D03*
X183186771Y-78520597D03*
%TD*%
D11*
%TO.C,SW31*%
X199451771Y-84115597D03*
X200751771Y-84115597D03*
X202051771Y-84115597D03*
D20*
X200751771Y-78365597D03*
%TD*%
D21*
%TO.C,D4*%
X197991771Y-84669597D03*
X195891771Y-84669597D03*
%TD*%
D22*
%TO.C,C50*%
X187776271Y-89749597D03*
X189851271Y-89749597D03*
%TD*%
D23*
%TO.C,C51*%
X192856271Y-89263097D03*
X192856271Y-87188097D03*
%TD*%
D24*
%TO.C,RV8*%
X192376771Y-82605597D03*
D25*
X191226771Y-78605597D03*
D24*
X190076771Y-82605597D03*
%TD*%
D26*
%TO.C,RV9*%
X194521771Y-78605597D03*
D27*
X195671771Y-82605597D03*
D26*
X196821771Y-78605597D03*
%TD*%
D17*
%TO.C,C56*%
X184837771Y-90725597D03*
X184837771Y-85725597D03*
%TD*%
%TO.C,C57*%
X180177771Y-90725597D03*
X180177771Y-85725597D03*
%TD*%
D16*
%TO.C,U9*%
X144025771Y-119998532D03*
X144025771Y-119048532D03*
X144025771Y-118098532D03*
X141325771Y-118098532D03*
X141325771Y-119998532D03*
%TD*%
D11*
%TO.C,SW25*%
X152805771Y-116208532D03*
X154105771Y-116208532D03*
X155405771Y-116208532D03*
D20*
X154105771Y-110458532D03*
%TD*%
D17*
%TO.C,C47*%
X138191771Y-122818532D03*
X138191771Y-117818532D03*
%TD*%
%TO.C,C48*%
X133531771Y-122818532D03*
X133531771Y-117818532D03*
%TD*%
%TO.C,C49*%
X127191771Y-122818532D03*
X127191771Y-117818532D03*
%TD*%
D21*
%TO.C,D3*%
X151345771Y-116762532D03*
X149245771Y-116762532D03*
%TD*%
D24*
%TO.C,RV6*%
X145730771Y-114698532D03*
D25*
X144580771Y-110698532D03*
D24*
X143430771Y-114698532D03*
%TD*%
D26*
%TO.C,RV7*%
X147875771Y-110698532D03*
D27*
X149025771Y-114698532D03*
D26*
X150175771Y-110698532D03*
%TD*%
D18*
%TO.C,SW21*%
X156137771Y-122858532D03*
X156137771Y-121588532D03*
X156137771Y-120318532D03*
X156137771Y-119048532D03*
X148517771Y-119048532D03*
X148517771Y-120318532D03*
X148517771Y-121588532D03*
X148517771Y-122858532D03*
%TD*%
D19*
%TO.C,SW22*%
X128490771Y-113513532D03*
X128490771Y-112063532D03*
X128490771Y-110613532D03*
X123840771Y-113513532D03*
X123840771Y-112063532D03*
X123840771Y-110613532D03*
%TD*%
%TO.C,SW23*%
X141190771Y-113513532D03*
X141190771Y-112063532D03*
X141190771Y-110613532D03*
X136540771Y-113513532D03*
X136540771Y-112063532D03*
X136540771Y-110613532D03*
%TD*%
D22*
%TO.C,C41*%
X141130271Y-121842532D03*
X143205271Y-121842532D03*
%TD*%
D23*
%TO.C,C42*%
X146210271Y-121356032D03*
X146210271Y-119281032D03*
%TD*%
D17*
%TO.C,C74*%
X184862771Y-117962532D03*
X184862771Y-122962532D03*
%TD*%
%TO.C,C77*%
X173862771Y-117962532D03*
X173862771Y-122962532D03*
%TD*%
D20*
%TO.C,SW43*%
X200776771Y-110602532D03*
D11*
X202076771Y-116352532D03*
X200776771Y-116352532D03*
X199476771Y-116352532D03*
%TD*%
D22*
%TO.C,C68*%
X189876271Y-121986532D03*
X187801271Y-121986532D03*
%TD*%
D19*
%TO.C,SW40*%
X170511771Y-110757532D03*
X170511771Y-112207532D03*
X170511771Y-113657532D03*
X175161771Y-110757532D03*
X175161771Y-112207532D03*
X175161771Y-113657532D03*
%TD*%
D23*
%TO.C,C69*%
X192881271Y-119425032D03*
X192881271Y-121500032D03*
%TD*%
D26*
%TO.C,RV13*%
X196846771Y-110842532D03*
D27*
X195696771Y-114842532D03*
D26*
X194546771Y-110842532D03*
%TD*%
D19*
%TO.C,SW41*%
X183211771Y-110757532D03*
X183211771Y-112207532D03*
X183211771Y-113657532D03*
X187861771Y-110757532D03*
X187861771Y-112207532D03*
X187861771Y-113657532D03*
%TD*%
D16*
%TO.C,U14*%
X187996771Y-120142532D03*
X187996771Y-118242532D03*
X190696771Y-118242532D03*
X190696771Y-119192532D03*
X190696771Y-120142532D03*
%TD*%
D17*
%TO.C,C75*%
X180202771Y-117962532D03*
X180202771Y-122962532D03*
%TD*%
D21*
%TO.C,D6*%
X195916771Y-116906532D03*
X198016771Y-116906532D03*
%TD*%
D18*
%TO.C,SW39*%
X195188771Y-123002532D03*
X195188771Y-121732532D03*
X195188771Y-120462532D03*
X195188771Y-119192532D03*
X202808771Y-119192532D03*
X202808771Y-120462532D03*
X202808771Y-121732532D03*
X202808771Y-123002532D03*
%TD*%
D24*
%TO.C,RV12*%
X190101771Y-114842532D03*
D25*
X191251771Y-110842532D03*
D24*
X192401771Y-114842532D03*
%TD*%
D17*
%TO.C,C65*%
X184822771Y-106831032D03*
X184822771Y-101831032D03*
%TD*%
%TO.C,C67*%
X173822771Y-106831032D03*
X173822771Y-101831032D03*
%TD*%
D11*
%TO.C,SW37*%
X199436771Y-100221032D03*
X200736771Y-100221032D03*
X202036771Y-100221032D03*
D20*
X200736771Y-94471032D03*
%TD*%
D22*
%TO.C,C59*%
X187761271Y-105855032D03*
X189836271Y-105855032D03*
%TD*%
D19*
%TO.C,SW34*%
X175121771Y-97526032D03*
X175121771Y-96076032D03*
X175121771Y-94626032D03*
X170471771Y-97526032D03*
X170471771Y-96076032D03*
X170471771Y-94626032D03*
%TD*%
D23*
%TO.C,C60*%
X192841271Y-105368532D03*
X192841271Y-103293532D03*
%TD*%
D26*
%TO.C,RV11*%
X194506771Y-94711032D03*
D27*
X195656771Y-98711032D03*
D26*
X196806771Y-94711032D03*
%TD*%
D19*
%TO.C,SW35*%
X187821771Y-97526032D03*
X187821771Y-96076032D03*
X187821771Y-94626032D03*
X183171771Y-97526032D03*
X183171771Y-96076032D03*
X183171771Y-94626032D03*
%TD*%
D16*
%TO.C,U13*%
X190656771Y-104011032D03*
X190656771Y-103061032D03*
X190656771Y-102111032D03*
X187956771Y-102111032D03*
X187956771Y-104011032D03*
%TD*%
D17*
%TO.C,C66*%
X180162771Y-106831032D03*
X180162771Y-101831032D03*
%TD*%
D21*
%TO.C,D5*%
X197976771Y-100775032D03*
X195876771Y-100775032D03*
%TD*%
D18*
%TO.C,SW33*%
X202768771Y-106871032D03*
X202768771Y-105601032D03*
X202768771Y-104331032D03*
X202768771Y-103061032D03*
X195148771Y-103061032D03*
X195148771Y-104331032D03*
X195148771Y-105601032D03*
X195148771Y-106871032D03*
%TD*%
D24*
%TO.C,RV10*%
X192361771Y-98711032D03*
D25*
X191211771Y-94711032D03*
D24*
X190061771Y-98711032D03*
%TD*%
D17*
%TO.C,C38*%
X138192771Y-101626032D03*
X138192771Y-106626032D03*
%TD*%
%TO.C,C40*%
X127192771Y-101626032D03*
X127192771Y-106626032D03*
%TD*%
D20*
%TO.C,SW19*%
X154106771Y-94266032D03*
D11*
X155406771Y-100016032D03*
X154106771Y-100016032D03*
X152806771Y-100016032D03*
%TD*%
D22*
%TO.C,C32*%
X143206271Y-105650032D03*
X141131271Y-105650032D03*
%TD*%
D19*
%TO.C,SW16*%
X123841771Y-94421032D03*
X123841771Y-95871032D03*
X123841771Y-97321032D03*
X128491771Y-94421032D03*
X128491771Y-95871032D03*
X128491771Y-97321032D03*
%TD*%
D23*
%TO.C,C33*%
X146211271Y-103088532D03*
X146211271Y-105163532D03*
%TD*%
D26*
%TO.C,RV5*%
X150176771Y-94506032D03*
D27*
X149026771Y-98506032D03*
D26*
X147876771Y-94506032D03*
%TD*%
D19*
%TO.C,SW17*%
X136541771Y-94421032D03*
X136541771Y-95871032D03*
X136541771Y-97321032D03*
X141191771Y-94421032D03*
X141191771Y-95871032D03*
X141191771Y-97321032D03*
%TD*%
D16*
%TO.C,U8*%
X141326771Y-103806032D03*
X141326771Y-101906032D03*
X144026771Y-101906032D03*
X144026771Y-102856032D03*
X144026771Y-103806032D03*
%TD*%
D17*
%TO.C,C39*%
X133532771Y-101626032D03*
X133532771Y-106626032D03*
%TD*%
D21*
%TO.C,D2*%
X149246771Y-100570032D03*
X151346771Y-100570032D03*
%TD*%
D18*
%TO.C,SW15*%
X148518771Y-106666032D03*
X148518771Y-105396032D03*
X148518771Y-104126032D03*
X148518771Y-102856032D03*
X156138771Y-102856032D03*
X156138771Y-104126032D03*
X156138771Y-105396032D03*
X156138771Y-106666032D03*
%TD*%
D24*
%TO.C,RV4*%
X143431771Y-98506032D03*
D25*
X144581771Y-94506032D03*
D24*
X145731771Y-98506032D03*
%TD*%
D11*
%TO.C,SW7*%
X152696771Y-83823532D03*
X153996771Y-83823532D03*
X155296771Y-83823532D03*
D20*
X153996771Y-78073532D03*
%TD*%
D28*
%TO.C,J4*%
X225880000Y-75340000D03*
D29*
X233680000Y-79140000D03*
X233680000Y-71540000D03*
%TD*%
D13*
%TO.C,J1*%
X107800000Y-75000000D03*
D12*
X100000000Y-71200000D03*
X100000000Y-78800000D03*
%TD*%
D26*
%TO.C,RV2*%
X147766771Y-78313532D03*
D27*
X148916771Y-82313532D03*
D26*
X150066771Y-78313532D03*
%TD*%
D16*
%TO.C,U1*%
X143916771Y-87613532D03*
X143916771Y-86663532D03*
X143916771Y-85713532D03*
X141216771Y-85713532D03*
X141216771Y-87613532D03*
%TD*%
D23*
%TO.C,C2*%
X146101271Y-88971032D03*
X146101271Y-86896032D03*
%TD*%
D22*
%TO.C,C1*%
X141021271Y-89457532D03*
X143096271Y-89457532D03*
%TD*%
D17*
%TO.C,C7*%
X138082771Y-90433532D03*
X138082771Y-85433532D03*
%TD*%
D19*
%TO.C,SW5*%
X141081771Y-81128532D03*
X141081771Y-79678532D03*
X141081771Y-78228532D03*
X136431771Y-81128532D03*
X136431771Y-79678532D03*
X136431771Y-78228532D03*
%TD*%
D17*
%TO.C,C9*%
X127082771Y-90433532D03*
X127082771Y-85433532D03*
%TD*%
D21*
%TO.C,D1*%
X151236771Y-84377532D03*
X149136771Y-84377532D03*
%TD*%
D17*
%TO.C,C8*%
X133422771Y-90433532D03*
X133422771Y-85433532D03*
%TD*%
D28*
%TO.C,J6*%
X225880000Y-125340000D03*
D29*
X233680000Y-129140000D03*
X233680000Y-121540000D03*
%TD*%
D28*
%TO.C,J5*%
X225880000Y-100340000D03*
D29*
X233680000Y-104140000D03*
X233680000Y-96540000D03*
%TD*%
D24*
%TO.C,RV1*%
X145621771Y-82313532D03*
D25*
X144471771Y-78313532D03*
D24*
X143321771Y-82313532D03*
%TD*%
D18*
%TO.C,SW3*%
X156028771Y-90473532D03*
X156028771Y-89203532D03*
X156028771Y-87933532D03*
X156028771Y-86663532D03*
X148408771Y-86663532D03*
X148408771Y-87933532D03*
X148408771Y-89203532D03*
X148408771Y-90473532D03*
%TD*%
D19*
%TO.C,SW4*%
X128381771Y-81128532D03*
X128381771Y-79678532D03*
X128381771Y-78228532D03*
X123731771Y-81128532D03*
X123731771Y-79678532D03*
X123731771Y-78228532D03*
%TD*%
M02*
